<svg xmlns="http://www.w3.org/2000/svg" xmlns:xlink="http://www.w3.org/1999/xlink" width="24px" height="24px" viewBox="0 0 24 24" version="1.1">
    <!-- Generator: Sketch 43.2 (39069) - http://www.bohemiancoding.com/sketch -->
    <title>lighthouse</title>
    <desc>Created with Sketch.</desc>
    <defs>
        <linearGradient x1="3.061617e-15%" y1="50%" x2="100%" y2="50%" id="linearGradient-1">
            <stop stop-color="#E6D1A4" stop-opacity="0.504132699" offset="0%"/>
            <stop stop-color="#E6D1A4" stop-opacity="0" offset="100%"/>
        </linearGradient>
    </defs>
    <g id="Page-1" stroke="none" stroke-width="1" fill="none" fill-rule="evenodd">
        <g id="Artboard-4" transform="translate(-180.000000, -335.000000)">
            <g id="104" transform="translate(180.000000, 335.000000)">
                <rect id="Rectangle-55" fill="#E6D1A4" x="4" y="22" width="16" height="2" rx="1"/>
                <polyline id="Path-23" stroke="#E6D1A4" stroke-width="2" stroke-linejoin="round" points="7 23 9 10 9 5.00000019 12 2 15 5 15 10 17 23"/>
                <circle id="Oval-36" fill="#E6D1A4" cx="12" cy="1" r="1"/>
                <path d="" id="Path-24" stroke="#979797"/>
                <path d="M9,10 C9,10 10.5,10 12,10 C13.5,10 15,10 15,10" id="Path-29" stroke="#E6D1A4" stroke-width="2"/>
                <path d="M9,15 C9,15 10.5,15 12,15 C13.5,15 15,15 15,15" id="Path-29" stroke="#E6D1A4" stroke-width="2" opacity="0.5"/>
                <path d="M8,19 C8,19 10.25,19 12.5,19 C14.75,19 17,19 17,19" id="Path-29" stroke="#E6D1A4" stroke-width="2" opacity="0.5"/>
                <path d="M9,6 C9,6 10.5,6 12,6 C13.5,6 15,6 15,6" id="Path-29" stroke="#E6D1A4" stroke-width="2"/>
                <rect id="Rectangle-56" fill="#E6D1A4" opacity="0.200000003" x="10" y="6" width="4" height="4"/>
                <polygon id="Rectangle-57" fill="url(#linearGradient-1)" points="14 7 24 6 24 10 14 9"/>
                <polygon id="Rectangle-57" fill="url(#linearGradient-1)" transform="translate(5.000000, 8.000000) scale(-1, 1) translate(-5.000000, -8.000000) " points="0 7 10 6 10 10 0 9"/>
            </g>
        </g>
    </g>
</svg>
